.
..............................Site Info...........................

 -   http://www.scenetime.com  *_*    

Scenetime .Always on time . friendly online private torrent community ..

     We care to share . Join us on  http://www.scenetime.com 

    Be the first to get new release at  http://www.scenetime.com

        Seed back for speed


...................................NFO:.................................................TITLE: Grabbers 2012 DVDSCR XviD - FUTiLE
                                                                                                                 
IMDB: http://www.imdb.com/title/tt1525366/
                                                                                        
SOURCES:
AUDIO - VOBS CHEERS MATE
VIDEO - VOBS CHEERS MATE                                                                                        


STATS:

Video
ID                                       : 0
Format                                   : MPEG-4 Visual
Format profile                           : Advanced Simple@L5
Format settings, BVOP                    : 2
Format settings, QPel                    : No
Format settings, GMC                     : No warppoints
Format settings, Matrix                  : Default (MPEG)
Muxing mode                              : Packed bitstream
Codec ID                                 : XVID
Codec ID/Hint                            : XviD
Duration                                 : 1h 30mn
Bit rate                                 : 1 976 Kbps
Width                                    : 720 pixels
Height                                   : 304 pixels
Display aspect ratio                     : 2.35:1
Frame rate                               : 25.000 fps
Color space                              : YUV
Chroma subsampling                       : 4:2:0
Bit depth                                : 8 bits
Scan type                                : Progressive
Compression mode                         : Lossy
Bits/(Pixel*Frame)                       : 0.361
Stream size                              : 1.24 GiB (91%)
Writing library                          : XviD 64

Audio
ID                                       : 1
Format                                   : AC-3
Format/Info                              : Audio Coding 3
Mode extension                           : CM (complete main)
Codec ID                                 : 2000
Duration                                 : 1h 30mn
Bit rate mode                            : Constant
Bit rate                                 : 192 Kbps
Channel(s)                               : 2 channels
Channel positions                        : Front: L R
Sampling rate                            : 48.0 KHz
Bit depth                                : 16 bits
Compression mode                         : Lossy
Stream size                              : 124 MiB (9%)
Alignment                                : Aligned on interleaves
Interleave, duration                     : 40 ms (1.00 video frame)
Interleave, preload duration             : 512 ms



NOTES:

First of big thanks to a good a friend of ours for sharing these vobs with us.

Was a straight rip with the video from the vobs which looked very well compared to other dvdscr's you also will notice no pixelation with this rip. Done a little tweaking to the video and then muxed the audio over and it....this should hopefully do til the dvdrip drops ;-)



SCREENIES:

[img]http://imgzr.com/images/g1.png[/img]
[img]http://imgzr.com/images/g2ivi.png[/img]
[img]http://imgzr.com/images/g3.png[/img]
[img]http://imgzr.com/images/g4.png[/img]
[img]http://imgzr.com/images/g5.png[/img]


P.s SCREENSHOTS WILL ALWAYS LOOK BETTER SO DON'T GO BY THEM.
( same goes on anyones release ....always check sample instead )
  

GREETS: P2P WORLD.